<svg height="512pt" viewBox="-39 0 512 512.00088" width="512pt" xmlns="http://www.w3.org/2000/svg"><path d="m9.683594 512h412.265625c7.035156 0 12.738281-5.703125 12.738281-12.738281v-453.0625c0-7.039063-5.703125-12.742188-12.738281-12.742188h-396.148438c-8.902343 0-16.117187 7.21875-16.117187 16.117188zm0 0" fill="#ced2e1"/><path d="m169.785156 512s120.019532.167969 193.476563-31.679688c3.746093-2.28125 5.976562-6.40625 5.976562-10.792968v-454.507813c0-9.042969-9.179687-15.253906-17.535156-11.800781-13.347656 5.515625-30.667969 15.183594-51.625 18.992188-4.675781.851562-290.433594 26.765624-290.433594 26.765624l-.890625 463.007813zm0 0" fill="#dce1ea"/><path d="m283.960938 1.5c-46.125 24.738281-142.265626 31.613281-271.25 32.023438-7.023438.019531-12.710938 5.714843-12.710938 12.738281v452.996093c0 7.039063 5.710938 12.746094 12.75 12.742188 127.074219-.039062 245.480469-1.214844 285.632812-37.597656 2.675782-2.425782 4.210938-5.863282 4.210938-9.476563v-452.132812c0-9.566407-10.203125-15.8125-18.632812-11.292969zm0 0" fill="#e01f26"/><path d="m12.710938 33.523438c-7.023438.019531-12.710938 5.714843-12.710938 12.738281v452.996093c0 7.039063 5.710938 12.746094 12.75 12.742188 48.894531-.015625 138.867188 0 138.867188 0v-482.878906c-40.210938 3.019531-86.882813 4.234375-138.90625 4.402344zm0 0" fill="#ff432e"/><g fill="#dce1ea"><path d="m170.898438 109.160156c-7.472657 0-13.988282-5.507812-15.039063-13.117187-1.15625-8.316407 4.652344-15.992188 12.96875-17.144531 31.035156-4.300782 56.699219-10.765626 78.46875-19.765626 7.761719-3.207031 16.652344.484376 19.859375 8.242188 3.207031 7.761719-.484375 16.652344-8.242188 19.859375-24.1875 9.996094-52.289062 17.121094-85.910156 21.78125-.707031.097656-1.414062.144531-2.105468.144531zm0 0"/><path d="m170.667969 177.453125c-7.472657 0-13.988281-5.515625-15.039063-13.125-1.152344-8.316406 4.660156-15.992187 12.980469-17.140625 31.234375-4.316406 57.050781-10.820312 78.914063-19.886719 7.753906-3.214843 16.648437.464844 19.867187 8.21875 3.214844 7.757813-.464844 16.652344-8.222656 19.867188-24.292969 10.074219-52.554688 17.246093-86.398438 21.921875-.707031.09375-1.410156.144531-2.101562.144531zm0 0"/><path d="m170.691406 245.707031c-7.472656 0-13.988281-5.511719-15.039062-13.125-1.148438-8.316406 4.660156-15.988281 12.980468-17.140625 31.117188-4.300781 56.851563-10.773437 78.667969-19.789062 7.757813-3.207032 16.648438.484375 19.855469 8.242187 3.207031 7.757813-.480469 16.648438-8.242188 19.855469-24.234374 10.019531-52.40625 17.152344-86.121093 21.8125-.707031.097656-1.40625.144531-2.101563.144531zm0 0"/><path d="m50.125 320.859375c-8.347656 0-15.144531-6.738281-15.203125-15.101563-.058594-8.394531 6.703125-15.25 15.097656-15.304687 70.386719-.484375 143.023438-4.042969 197.5-26.632813 7.757813-3.21875 16.652344.460938 19.867188 8.21875 3.21875 7.753907-.460938 16.652344-8.21875 19.867188-59.300781 24.589844-135.464844 28.445312-208.9375 28.949219-.035157.003906-.070313.003906-.105469.003906zm0 0"/><path d="m50.125 389.117188c-8.347656 0-15.144531-6.738282-15.203125-15.097657-.058594-8.398437 6.703125-15.25 15.097656-15.308593 69.648438-.476563 141.585938-3.957032 195.933594-25.988282 7.78125-3.15625 16.644531.59375 19.800781 8.375 3.152344 7.78125-.597656 16.648438-8.378906 19.800782-59.085938 23.957031-134.476562 27.71875-207.148438 28.21875-.03125 0-.066406 0-.101562 0zm0 0"/><path d="m50.125 457.375c-8.347656 0-15.144531-6.734375-15.203125-15.097656-.058594-8.394532 6.703125-15.25 15.097656-15.304688 70.386719-.484375 143.023438-4.042968 197.5-26.636718 7.757813-3.214844 16.652344.464843 19.867188 8.222656 3.21875 7.753906-.460938 16.648437-8.21875 19.867187-59.300781 24.589844-135.464844 28.445313-208.9375 28.949219-.035157 0-.070313 0-.105469 0zm0 0"/></g><path d="m50.125 252.597656c-8.394531 0-15.203125-6.804687-15.203125-15.203125v-136.519531c0-6.898438 4.648437-12.929688 11.316406-14.695312 6.667969-1.765626 13.691407 1.183593 17.101563 7.179687l47.601562 83.640625v-79.191406c0-8.394532 6.804688-15.203125 15.203125-15.203125 8.394531 0 15.203125 6.808593 15.203125 15.203125v136.640625c0 6.898437-4.644531 12.933593-11.316406 14.699219-6.667969 1.761718-13.691406-1.183594-17.101562-7.179688l-47.601563-83.640625v79.066406c0 8.398438-6.804687 15.203125-15.203125 15.203125zm0 0" fill="#ffc247"/><path d="m63.339844 93.355469c-3.414063-5.996094-10.433594-8.941407-17.101563-7.175781-6.671875 1.765624-11.316406 7.796874-11.316406 14.695312v136.519531c0 8.394531 6.808594 15.203125 15.203125 15.203125s15.203125-6.808594 15.203125-15.203125v-79.066406l24.015625 42.199219v-61.476563zm0 0" fill="#ffd97d"/><path d="m50.019531 290.453125c-8.394531.054687-15.152343 6.910156-15.097656 15.304687.058594 8.363282 6.855469 15.101563 15.203125 15.101563h.105469c33.863281-.234375 68.292969-1.183594 101.386719-4.542969v-30.558594c-32.847657 3.496094-67.484376 4.460938-101.597657 4.695313zm0 0" fill="#f3f5fb"/><path d="m50.019531 358.710938c-8.394531.058593-15.15625 6.910156-15.097656 15.308593.058594 8.359375 6.855469 15.097657 15.203125 15.097657h.105469c33.847656-.230469 68.28125-1.175782 101.386719-4.535157v-30.5625c-32.863282 3.496094-67.5 4.457031-101.597657 4.691407zm0 0" fill="#f3f5fb"/><path d="m50.019531 426.972656c-8.394531.054688-15.152343 6.910156-15.097656 15.304688.058594 8.363281 6.855469 15.097656 15.203125 15.097656h.105469c33.863281-.230469 68.292969-1.183594 101.386719-4.539062v-30.558594c-32.847657 3.496094-67.484376 4.460937-101.597657 4.695312zm0 0" fill="#f3f5fb"/></svg>